<?xml version="1.0" encoding="iso-8859-1"?>
<!-- Generator: Adobe Illustrator 19.0.0, SVG Export Plug-In . SVG Version: 6.00 Build 0)  -->
<svg version="1.1" id="Layer_1" xmlns="http://www.w3.org/2000/svg" xmlns:xlink="http://www.w3.org/1999/xlink" x="0px" y="0px"
	 viewBox="0 0 512 512" style="enable-background:new 0 0 512 512;" xml:space="preserve">
<circle style="fill:#366796;" cx="256" cy="256" r="256"/>
<path style="fill:#273B7A;" d="M328.582,501.546c91.191-26.914,161.182-103.231,178.988-197.972l-86.492-86.65l-15.384,9.483
	l-97.401-97.401L89.859,262.07L328.582,501.546z"/>
<path style="fill:#FFC91B;" d="M297.374,124.413H100.848c-8.568,0-15.515,6.946-15.515,15.515V251.12
	c0,8.568,6.946,15.515,15.515,15.515H128v26.169c0,5.213,6.303,7.825,9.99,4.137l30.306-30.306h129.077
	c8.568,0,15.515-6.946,15.515-15.515V139.928C312.889,131.358,305.943,124.413,297.374,124.413z"/>
<path style="fill:#D48B07;" d="M297.374,124.413h-94.527v142.222h94.527c8.568,0,15.515-6.946,15.515-15.515V139.928
	C312.889,131.358,305.943,124.413,297.374,124.413z"/>
<g>
	<rect x="128" y="160.754" style="fill:#366695;" width="142.222" height="6.896"/>
	<rect x="128" y="189.199" style="fill:#366695;" width="142.222" height="6.896"/>
	<rect x="128" y="217.643" style="fill:#366695;" width="142.222" height="6.896"/>
</g>
<path style="fill:#FEE187;" d="M214.626,213.333h196.525c8.568,0,15.515,6.946,15.515,15.515V340.04
	c0,8.568-6.946,15.515-15.515,15.515H384v26.169c0,5.213-6.303,7.825-9.99,4.137l-30.306-30.306H214.626
	c-8.568,0-15.515-6.946-15.515-15.515V228.848C199.111,220.279,206.057,213.333,214.626,213.333z"/>
<path style="fill:#FFC61B;" d="M411.152,213.333H308.867v142.222h34.837l30.306,30.306c3.686,3.686,9.99,1.076,9.99-4.137v-26.169
	h27.152c8.57,0,15.515-6.946,15.515-15.515V228.848C426.667,220.279,419.721,213.333,411.152,213.333z"/>
<g>
	<rect x="241.778" y="255.569" style="fill:#366695;" width="142.222" height="6.896"/>
	<rect x="241.778" y="284.013" style="fill:#366695;" width="142.222" height="6.896"/>
	<rect x="241.778" y="312.458" style="fill:#366695;" width="142.222" height="6.896"/>
</g>
<g>
</g>
<g>
</g>
<g>
</g>
<g>
</g>
<g>
</g>
<g>
</g>
<g>
</g>
<g>
</g>
<g>
</g>
<g>
</g>
<g>
</g>
<g>
</g>
<g>
</g>
<g>
</g>
<g>
</g>
</svg>
