<?xml version="1.0" encoding="iso-8859-1"?>
<!-- Generator: Adobe Illustrator 19.0.0, SVG Export Plug-In . SVG Version: 6.00 Build 0)  -->
<svg version="1.1" id="Layer_1" xmlns="http://www.w3.org/2000/svg" xmlns:xlink="http://www.w3.org/1999/xlink" x="0px" y="0px"
	 viewBox="0 0 505 505" style="enable-background:new 0 0 505 505;" xml:space="preserve">
<circle style="fill:#FFD05B;" cx="252.5" cy="252.5" r="252.5"/>
<path style="fill:#FFFFFF;" d="M382.3,296.1l26.3-26.3c9.6-9.6,9.6-25,0-34.6l-26.3-26.3c-4.6-4.6-7.2-10.8-7.2-17.3v-37.2
	c0-13.5-11-24.5-24.5-24.5h-37.2c-6.5,0-12.7-2.6-17.3-7.2l-26.3-26.3c-9.6-9.6-25-9.6-34.6,0l-26.3,26.3
	c-4.6,4.6-10.8,7.2-17.3,7.2h-37.2c-13.5,0-24.5,11-24.5,24.5v37.2c0,6.5-2.6,12.7-7.2,17.3l-26.3,26.3c-9.6,9.6-9.6,25,0,34.6
	l26.3,26.3c4.6,4.6,7.2,10.8,7.2,17.3v37.2c0,13.5,11,24.5,24.5,24.5h37.2c6.5,0,12.7,2.6,17.3,7.2l26.3,26.3c9.6,9.6,25,9.6,34.6,0
	l26.3-26.3c4.6-4.6,10.8-7.2,17.3-7.2h37.2c13.5,0,24.5-11,24.5-24.5v-37.2C375.1,306.9,377.7,300.7,382.3,296.1z"/>
<g>
	<path style="fill:#4CDBC4;" d="M185.3,196.8c5.4,2.4,9.2,7,11.4,13.7s2,12.7-0.7,17.9s-8.2,9.2-16.4,12l-14.7,4.9l-14.4-43.2
		l15.2-5.1C173.4,194.5,179.9,194.4,185.3,196.8z M186.7,224.8c1.6-3,1.7-6.6,0.3-10.9c-1.4-4.2-3.7-7.1-6.8-8.6s-7.1-1.4-12,0.2
		l-5.4,1.8l8.7,26.2l6.1-2C182.1,230.1,185.1,227.8,186.7,224.8z"/>
	<path style="fill:#4CDBC4;" d="M229,176.1l2.9,8.6l-21.5,7.1l3,8.9l19.3-6.4l2.7,8.2l-19.3,6.4l3,8.9l22.1-7.4l2.8,8.5l-31.8,10.6
		l-14.3-43.1L229,176.1z"/>
	<path style="fill:#4CDBC4;" d="M283.3,205.9l-7.1-8l-18.1,6l-0.9,10.6l-10.2,3.4l4.3-49.3l9.3-3.1l33,37L283.3,205.9z M260.2,179.9
		l-1.3,14.3l10.8-3.6L260.2,179.9z"/>
	<path style="fill:#4CDBC4;" d="M298.5,200.9l-14.3-43.1l9.6-3.2l11.5,34.6l18.4-6.1l2.9,8.6L298.5,200.9z"/>
	<path style="fill:#4CDBC4;" d="M204.8,278.3c-2.1,4.2-5.5,7-10.2,8.5c-4.6,1.5-9.1,1.3-13.3-0.8c-4.2-2-7.1-5.4-8.6-10
		s-1.2-9,0.9-13.2c2.1-4.2,5.5-7,10.2-8.5c4.6-1.5,9.1-1.3,13.3,0.8c4.2,2,7.1,5.4,8.6,10C207.3,269.7,207,274.1,204.8,278.3z
		 M198.6,267.5c-0.9-2.8-2.6-4.9-5.1-6.3s-5-1.6-7.6-0.8c-2.6,0.9-4.5,2.6-5.6,5.2s-1.2,5.3-0.3,8.1c0.9,2.8,2.6,4.9,5.1,6.3
		s5,1.6,7.6,0.7s4.5-2.6,5.6-5.1C199.4,273,199.5,270.3,198.6,267.5z"/>
	<path style="fill:#4CDBC4;" d="M228.1,240.5l2,6.2l-14.6,4.8l2.3,6.8l13.8-4.6l2,6.2l-13.8,4.6l4.1,12.3l-7,2.3l-10.4-31.4
		L228.1,240.5z"/>
	<path style="fill:#4CDBC4;" d="M261.2,236.2l8.4,25.4l-7,2.3l-8.4-25.4l-8.9,3l-2-6.1l24.8-8.2l2,6.1L261.2,236.2z"/>
	<path style="fill:#4CDBC4;" d="M292.7,219l7-2.3l10.4,31.4l-7,2.3L299,238l-12.5,4.1l4.1,12.4l-7,2.3l-10.4-31.3l7-2.3l4.4,13.1
		l12.5-4.1L292.7,219z"/>
	<path style="fill:#4CDBC4;" d="M330,206.6l2.1,6.2l-15.6,5.2l2.2,6.5l14.1-4.7l2,6l-14.1,4.7l2.2,6.5l16.1-5.4l2.1,6.2l-23.1,7.7
		l-10.4-31.4L330,206.6z"/>
</g>
<g>
	<path style="fill:#FF7058;" d="M230.4,298.5c7,3.1,12,9.1,14.9,17.9s2.6,16.6-0.9,23.5s-10.7,12.1-21.5,15.6l-19.3,6.4l-18.8-56.5
		l19.9-6.6C214.8,295.5,223.4,295.4,230.4,298.5z M232.3,335.1c2.1-3.9,2.3-8.7,0.4-14.2c-1.8-5.5-4.8-9.3-8.9-11.3
		c-4.1-2-9.3-1.9-15.7,0.2l-7,2.3l11.4,34.3l8-2.7C226.2,342,230.2,339.1,232.3,335.1z"/>
	<path style="fill:#FF7058;" d="M304.2,328.5l-9.3-10.5l-23.6,7.9l-1.2,13.9l-13.4,4.5l5.6-64.6l12.2-4l43.1,48.4L304.2,328.5z
		 M274,294.5l-1.7,18.8l14.2-4.8L274,294.5z"/>
	<path style="fill:#FF7058;" d="M344.5,315.1l-12.6,4.2l-7.4-22.3l-30.9-27.7l13.6-4.5l19.2,17l5.2-25l13.6-4.5L337,293L344.5,315.1
		z"/>
</g>
<g>
</g>
<g>
</g>
<g>
</g>
<g>
</g>
<g>
</g>
<g>
</g>
<g>
</g>
<g>
</g>
<g>
</g>
<g>
</g>
<g>
</g>
<g>
</g>
<g>
</g>
<g>
</g>
<g>
</g>
</svg>
