<?xml version="1.0" encoding="iso-8859-1"?>
<!-- Generator: Adobe Illustrator 19.0.0, SVG Export Plug-In . SVG Version: 6.00 Build 0)  -->
<svg version="1.1" id="Layer_1" xmlns="http://www.w3.org/2000/svg" xmlns:xlink="http://www.w3.org/1999/xlink" x="0px" y="0px"
	 viewBox="0 0 504 504" style="enable-background:new 0 0 504 504;" xml:space="preserve">
<circle style="fill:#90DFAA;" cx="252" cy="252" r="252"/>
<path style="fill:#E6E9EE;" d="M406.4,360.8c0-8-4-12-11.6-12c-32.4,0-65.2-0.4-97.6,0c-8,0-11.6,4.4-11.6,12.8c0,8,0,16,0,24.4
	c0,12.4,3.2,15.6,16,15.6c14.8,0,29.6,0,44,0c16,0,31.6,0,47.6,0c9.2,0,13.2-4,13.2-13.2C406.4,379.6,406.4,370,406.4,360.8z"/>
<path style="fill:#FF7058;" d="M207.2,348.8c-32.4-0.4-65.2-0.4-97.6,0c-8,0-11.6,4-11.6,12c-0.4,9.2,0,18.4,0,27.6
	c0,8.8,4,12.8,13.2,13.2c16,0,31.6,0,47.6,0c14.8,0,29.6,0,44,0c12.8,0,16-3.2,16-15.6c0-8,0-16,0-24.4
	C218.8,353.2,215.2,348.8,207.2,348.8z"/>
<path style="fill:#FFD05B;" d="M386.4,340c-2.8,0.4-5.2,0.4-7.2,0.4c-24.4,0-48.8,0-73.2,0c-4.4,0-6.8-1.2-8.4-5.6
	c-12.4-32-11.6-38,2.4-66c11.6-23.6,23.6-46.8,35.6-70.4c5.6-11.2,16-15.6,26.4-12.4c12.4,4,18,17.6,12,30c-6,12-12.4,24-18,36.4
	c-1.2,2.4,0,5.2,0,8c2-1.6,5.2-2.8,6.4-5.2c6-11.2,11.6-22.8,17.6-34c5.6-10.4,6-21.2-0.8-30.8s-16.4-13.6-28.4-12
	c-1.6,0.4-4.4-1.2-5.6-2.8c-10.8-14-21.2-28.4-31.6-42.8c-6.4-8.8-4.8-20.4,3.6-26.8c8-6,20.4-4.8,26.8,4
	c21.2,28.4,42.4,57.2,63.2,86c2.8,4,3.6,11.6,2.4,16.8c-6,26-13.2,52-19.2,78c-2,8.4-2.4,28.4-3.2,37.2
	C386,331.6,386.4,335.6,386.4,340z"/>
<path style="fill:#324A5E;" d="M117.6,340c2.8,0.4,5.2,0.4,7.2,0.4c24.4,0,48.8,0,73.2,0c4.4,0,6.8-1.2,8.4-5.6
	c12.4-32,11.6-38-2.4-66c-11.6-23.6-23.6-46.8-35.6-70.4c-5.6-11.2-16-15.6-26.4-12.4c-12.4,4-18,17.6-12,30c6,12,12.4,24,18,36.4
	c1.2,2.4,0,5.2,0,8c-2-1.6-5.2-2.8-6.4-5.2c-6-11.2-11.6-22.8-17.6-34c-5.6-10.4-6-21.2,0.8-30.8s16.4-13.6,28.4-12
	c1.6,0.4,4.4-1.2,5.6-2.8c10.8-14,21.2-28.4,31.6-42.8c6.4-8.8,4.8-20.4-3.6-26.8c-8-6-20.4-4.8-26.8,4c-20.8,28.4-42,56.8-62.8,86
	c-2.8,4-3.6,11.6-2.4,16.8c6,26,13.2,52,19.2,78c2,8.4,2.4,28.4,3.2,37.2C118,331.6,117.6,335.6,117.6,340z"/>
<path style="fill:#FF7058;" d="M252,155.2c12.8-15.6,30-18.8,42.8-14c30.4,11.6,38,54.8,11.6,82.4c-54.4,56-54.4,56-54.4,56
	s0,0-54-56.4c-26.4-27.2-19.2-70.8,11.6-82.4C222,136.4,239.2,139.6,252,155.2z"/>
<circle style="fill:#F1543F;" cx="124.4" cy="375.2" r="13.2"/>
<circle style="fill:#324A5E;" cx="379.6" cy="375.2" r="13.2"/>
<g>
</g>
<g>
</g>
<g>
</g>
<g>
</g>
<g>
</g>
<g>
</g>
<g>
</g>
<g>
</g>
<g>
</g>
<g>
</g>
<g>
</g>
<g>
</g>
<g>
</g>
<g>
</g>
<g>
</g>
</svg>
