<?xml version="1.0" encoding="iso-8859-1"?>
<!-- Generator: Adobe Illustrator 19.0.0, SVG Export Plug-In . SVG Version: 6.00 Build 0)  -->
<svg version="1.1" id="Layer_1" xmlns="http://www.w3.org/2000/svg" xmlns:xlink="http://www.w3.org/1999/xlink" x="0px" y="0px"
	 viewBox="0 0 512 512" style="enable-background:new 0 0 512 512;" xml:space="preserve">
<circle style="fill:#FAD24D;" cx="255.2" cy="256" r="255.2"/>
<path style="fill:#EDB937;" d="M423.466,217.331h-24.345v219.862h12.172c6.696,0,12.172-5.476,12.172-12.172V217.326
	L423.466,217.331L423.466,217.331z"/>
<path style="fill:#FFFFFF;" d="M111.278,74.806h287.848V414.6c0,0,0.935,17.827,12.172,22.593h-12.172h-4.105H111.278V74.806z"/>
<rect x="131.24" y="93.45" style="fill:#21D0C3;" width="245.84" height="68.22"/>
<rect x="310.63" y="106.04" style="fill:#FAD24D;" width="51.54" height="49.873"/>
<g>
	<path style="fill:#ECF0F1;" d="M131.238,345.482h97.1v3.041h-97.101L131.238,345.482L131.238,345.482z M131.238,294.98h144.168
		v3.041H131.238V294.98z M131.238,303.396h144.168v3.041H131.238V303.396z M131.238,311.813h144.168v3.041H131.238V311.813z
		 M131.238,320.229h144.168v3.041H131.238V320.229z M131.238,328.645h144.168v3.041H131.238V328.645z M131.238,337.062h144.168
		v3.041H131.238V337.062z"/>
	<rect x="293.96" y="294.98" style="fill:#ECF0F1;" width="83.11" height="5.237"/>
</g>
<rect x="293.96" y="311.05" style="fill:#FAD24D;" width="83.11" height="56.31"/>
<g>
	<rect x="293.96" y="372.45" style="fill:#ECF0F1;" width="83.11" height="2.972"/>
	<rect x="293.96" y="379.72" style="fill:#ECF0F1;" width="83.11" height="2.972"/>
</g>
<path style="fill:#21D0C3;" d="M168.866,219.633h8.659v45.952h-8.659V219.633z"/>
<path style="fill:#FF5B62;" d="M184.639,252.505h8.659v13.085h-8.659V252.505z"/>
<path style="fill:#FAD24D;" d="M200.406,240.699h8.659v24.891h-8.659V240.699z"/>
<path style="fill:#21D0C3;" d="M216.18,214.79h8.659v50.8h-8.659V214.79z"/>
<path style="fill:#FF5B62;" d="M153.092,237.635h8.659v27.955h-8.659V237.635z"/>
<rect x="131.24" y="276.09" style="fill:#ECF0F1;" width="245.84" height="13.842"/>
<g>
	<path style="fill:#C9CACC;" d="M328.159,41.737L443.67,97.45c6.109,4.655,4.339,33.422,3.596,38.774
		c-0.743,5.357-4.385,3.481-8.402-0.697c-4.014-4.174,8.54-28.487-1.701-32.931l-127.63-55.365c1.248-2.279,3.165-4.618,5.394-5.343
		c3.202-1.046,6.824-1.311,13.232-0.156V41.737C328.159,41.737,328.159,41.737,328.159,41.737z"/>
	<path style="fill:#C9CACC;" d="M481.334,94.074l-125.45-26.625c-7.682-0.055-23.881,23.781-26.574,28.468
		c-2.687,4.692,1.339,5.435,7.072,4.591c5.729-0.844,10.678-27.758,21.497-25.001l134.82,34.316
		c0.408-2.569,0.325-5.587-0.991-7.527c-1.894-2.789-4.596-5.214-10.37-8.219L481.334,94.074z"/>
</g>
<path style="fill:#ECF0F1;" d="M490.539,116.139c-1.271,2.279-2.527,4.568-3.779,6.82c-2.334,4.202-4.66,8.407-6.977,12.618
	c-9.622,17.507-43.81,10.269-56.359-0.11c-0.546-0.45-1.055-0.945-1.536-1.468c-3.105-3.394-4.88-8.2-5.94-12.608
	c-1.284-5.339-1.752-10.966-1.889-16.447c-0.088-3.417,0.137-7.223-0.041-10.645c0.119-0.536,0.253-1.06,0.39-1.569l22.758,9.87
	c10.242,4.444-2.311,28.753,1.701,32.931c4.014,4.174,7.659,6.049,8.402,0.697c0.743-5.357,2.513-34.119-3.596-38.774l-0.454-0.22
	l49.474,12.59C492.374,111.919,491.663,114.117,490.539,116.139z M420.834,81.236c1.188-1.146,2.408-2.032,3.573-2.72
	c11.81,0.807,40.784,7.16,56.923,15.558L420.834,81.236z M307.377,53.556c-0.39,2.582-0.798,5.16-1.188,7.706
	c-0.724,4.752-1.454,9.499-2.202,14.246c-3.1,19.731,28.368,34.935,44.64,34.399c0.711-0.023,1.413-0.1,2.114-0.22
	c4.532-0.789,8.884-3.499,12.416-6.339c4.284-3.436,8.095-7.599,11.562-11.852c2.156-2.647,4.307-5.798,6.545-8.393
	c0.234-0.499,0.45-0.995,0.652-1.481l-24.038-6.119c-10.82-2.757-15.769,24.157-21.497,25.001c-5.729,0.844-9.76,0.1-7.068-4.591
	c2.687-4.687,18.892-28.524,26.574-28.468l0.491,0.105L309.54,47.231c-1.028,1.853-1.812,4.027-2.16,6.316L307.377,53.556z
	 M383.866,68.604c-0.239-1.633-0.661-3.082-1.16-4.334c-9.833-6.586-36.637-19.296-54.543-22.528l55.703,26.867V68.604z"/>
<path style="fill:#0F7986;" d="M511.976,99.457c0.078-0.624-3.206-2.087-6.43-3.367c-11.52-8.393-68.792-29.211-77.566-27.588
	c-0.976,0.184-16.736-0.977-16.745-0.949l-5.843-1.541l-5.564-2.357c0.009-0.023-13.164-8.75-13.829-9.494
	c-5.963-6.673-64.344-25.349-78.36-25.648h-0.001v-0.012c-3.082-0.867-6.091-1.564-6.385-1.06
	c-1.279,1.028-3.789,11.476-3.633,12.008c0.188,0.289,1.253,1.109,2.968,2.325c0.074,0.757,0.069,1.688-0.055,2.803
	c-0.491,4.422-3.413,23.249-4.422,29.679c-3.986,25.331,31.399,44.315,52.781,43.613c19.301-0.633,35.216-26.148,39.114-30.354
	c0.766-0.826,1.692-2.257,2.683-4.023c3.288-0.67,7.191-1.109,8.696,0.088c1.926-0.028,4.738,2.71,6.935,5.251
	c-0.299,2.005-0.445,3.702-0.344,4.825c0.508,5.711-2.518,35.629,12.36,47.943c16.479,13.646,56.084,20.282,68.435-2.192
	c3.138-5.706,12.347-22.382,14.663-26.18c0.555-0.908,1.119-1.578,1.661-2.06c2.462,0.115,4.054,0.128,4.408,0.005
	C507.95,110.854,512.361,101.053,511.976,99.457z M381.26,83.103c-2.234,2.596-4.385,5.747-6.545,8.393
	c-3.463,4.252-7.279,8.416-11.558,11.852c-3.536,2.84-7.884,5.55-12.416,6.339c-0.701,0.119-1.403,0.197-2.114,0.22
	c-16.272,0.532-47.74-14.672-44.64-34.403c0.748-4.747,1.477-9.494,2.202-14.246c0.39-2.546,0.803-5.124,1.188-7.706v-0.001h-0.006
	c0.77-5.022,3.61-9.508,6.627-11.214c11.871-6.724,55.525,13.099,68.701,21.928C384.374,68.453,385.149,74.778,381.26,83.103z
	 M490.539,116.135c-1.276,2.279-2.527,4.573-3.779,6.824c-2.334,4.197-4.66,8.402-6.977,12.613
	c-9.622,17.507-43.815,10.274-56.359-0.11c-0.546-0.45-1.06-0.945-1.536-1.468c-3.105-3.399-4.88-8.205-5.944-12.613
	c-1.284-5.339-1.752-10.966-1.889-16.447c-0.088-3.417,0.137-7.223-0.041-10.645c2.018-8.962,6.504-13.489,10.388-15.782
	c15.828,1.082,62.482,12.117,67.756,24.698c1.339,3.197,0.844,8.485-1.624,12.924L490.539,116.135z"/>
<path style="fill:#FAD24D;" d="M185.551,177.942l15.934-0.592l2.866-0.105l-0.225,2.849l-1.353,17.291l-5.105-0.381l0.798-10.173
	l-21.354,22.226l-1.385,1.445l-1.738-1.005l-8.797-5.082l-30.225,30.716l27.547-35.61l1.367-1.77l1.935,1.119l8.998,5.192
	l20.538-21.377l-9.622,0.358l-0.179-5.105V177.942L185.551,177.942z"/>
<path style="fill:#FFFFFF;" d="M151.533,114.552v31.34h-7.586v-43.269h10.576l8.659,25.9v-25.9h7.508v43.269h-8.659L151.533,114.552
	z M143.053,151.744H274.36v3.784H143.053V151.744z M247.001,113.007c0-3.504,1.032-6.191,3.105-8.068
	c2.068-1.875,5.174-2.812,9.311-2.812s7.242,0.935,9.311,2.812c2.068,1.875,3.105,4.564,3.105,8.068v1.358h-7.966v-1.793
	c0-1.569-0.371-2.669-1.11-3.307c-0.743-0.638-1.775-0.958-3.1-0.958c-1.33,0-2.362,0.316-3.105,0.958
	c-0.743,0.638-1.114,1.743-1.114,3.307c0,1.481,0.408,2.793,1.225,3.926s1.84,2.206,3.063,3.215
	c1.225,1.009,2.541,2.018,3.944,3.027c1.404,1.009,2.72,2.11,3.949,3.307c1.225,1.197,2.248,2.555,3.063,4.082
	c0.817,1.527,1.225,3.316,1.225,5.38c0,3.504-1.06,6.191-3.179,8.068c-2.119,1.875-5.247,2.812-9.388,2.812
	c-4.137,0-7.265-0.935-9.384-2.812c-2.119-1.876-3.183-4.564-3.183-8.068v-2.66h7.971v3.091c0,1.564,0.394,2.656,1.188,3.274
	c0.794,0.619,1.853,0.926,3.179,0.926c1.33,0,2.39-0.307,3.179-0.926c0.794-0.619,1.188-1.71,1.188-3.274
	c0-1.486-0.408-2.793-1.225-3.926c-0.821-1.133-1.84-2.202-3.068-3.211c-1.225-1.009-2.541-2.018-3.944-3.027
	c-1.404-1.009-2.72-2.114-3.944-3.307c-1.225-1.197-2.248-2.555-3.063-4.082c-0.817-1.522-1.225-3.316-1.225-5.376L247.001,113.007z
	 M223.633,122.835l-3.063,23.057h-11.567l-5.977-43.269h8.2l4.522,34.123l4.059-34.123h8.123l4.215,34.371l4.367-34.371h7.357
	l-5.977,43.269h-11.191l-3.063-23.057H223.633z M185.171,120.854h11.567v6.183h-11.567v12.673h14.558v6.183h-22.988v-43.269h22.987
	v6.183H185.17v12.054v-0.005h0.001V120.854z"/>
<g>
	<path style="fill:#ECF0F1;" d="M255.601,232.182H336.8v3.041h-81.199L255.601,232.182L255.601,232.182z M255.601,181.68h120.566
		v3.041H255.601V181.68z M255.601,190.096h120.566v3.041H255.601V190.096z M255.601,198.512h120.566v3.041H255.601V198.512z
		 M255.601,206.929h120.566v3.041H255.601V206.929z M255.601,215.345h120.566v3.041H255.601V215.345z M255.601,223.761h120.566
		v3.041H255.601V223.761z"/>
	<rect x="293.96" y="387.55" style="fill:#ECF0F1;" width="54.602" height="2.972"/>
</g>
<g>
</g>
<g>
</g>
<g>
</g>
<g>
</g>
<g>
</g>
<g>
</g>
<g>
</g>
<g>
</g>
<g>
</g>
<g>
</g>
<g>
</g>
<g>
</g>
<g>
</g>
<g>
</g>
<g>
</g>
</svg>
