<?xml version="1.0" encoding="iso-8859-1"?>
<!-- Generator: Adobe Illustrator 19.0.0, SVG Export Plug-In . SVG Version: 6.00 Build 0)  -->
<svg version="1.1" id="Layer_1" xmlns="http://www.w3.org/2000/svg" xmlns:xlink="http://www.w3.org/1999/xlink" x="0px" y="0px"
	 viewBox="0 0 512 512" style="enable-background:new 0 0 512 512;" xml:space="preserve">
<circle style="fill:#FFAD9E;" cx="256" cy="256" r="256"/>
<path style="fill:#FF6262;" d="M512,256c0-5.697-0.205-11.345-0.572-16.949l-89.933-89.933L90.884,364.365L237.211,511.31
	C243.415,511.76,249.68,512,256,512C397.384,512,512,397.384,512,256z"/>
<path style="fill:#366695;" d="M407.992,369.778H104.008c-10.314,0-18.675-8.361-18.675-18.675V160.899
	c0-10.314,8.361-18.677,18.675-18.677H407.99c10.314,0,18.675,8.361,18.675,18.677v190.204
	C426.667,361.417,418.306,369.778,407.992,369.778z"/>
<path style="fill:#273B7A;" d="M407.992,142.222H255.426v227.556h152.566c10.314,0,18.675-8.361,18.675-18.675V160.897
	C426.667,150.583,418.306,142.222,407.992,142.222z"/>
<circle style="fill:#FFEDB5;" cx="256" cy="274.963" r="56.889"/>
<path style="fill:#FEE187;" d="M256,218.074c-0.193,0-0.383,0.012-0.574,0.014v113.748c0.191,0.002,0.381,0.014,0.574,0.014
	c31.418,0,56.889-25.471,56.889-56.889S287.418,218.074,256,218.074z"/>
<path style="fill:#263A7A;" d="M245.696,250.296l34.397,19.859c3.701,2.136,3.701,7.478,0,9.616l-34.397,19.859
	c-3.701,2.136-8.326-0.534-8.326-4.808v-39.719C237.37,250.83,241.995,248.16,245.696,250.296z"/>
<path style="fill:#121149;" d="M280.095,270.155l-24.669-14.243v38.1l24.669-14.243
	C283.796,277.633,283.796,272.293,280.095,270.155z"/>
<rect x="85.333" y="170.667" style="fill:#8892A8;" width="341.333" height="28.444"/>
<rect x="255.431" y="170.667" style="fill:#6B778C;" width="171.236" height="28.444"/>
<g>
</g>
<g>
</g>
<g>
</g>
<g>
</g>
<g>
</g>
<g>
</g>
<g>
</g>
<g>
</g>
<g>
</g>
<g>
</g>
<g>
</g>
<g>
</g>
<g>
</g>
<g>
</g>
<g>
</g>
</svg>
